<svg width="44" height="44" viewBox="0 0 44 44" fill="none" xmlns="http://www.w3.org/2000/svg">
<rect width="44" height="44" rx="22" fill="url(#paint0_linear_2009_3167)" fill-opacity="0.2"/>
<path d="M28.5398 22.7837C28.5398 23.4503 29.0815 24.0003 29.7481 24.0003C30.0648 24.0003 30.3315 24.2587 30.3315 24.5753C30.3315 27.7753 29.3648 28.742 26.1648 28.742H21.7898V27.417C21.7898 27.092 21.5398 26.8253 21.2231 26.8003C21.2065 26.792 21.1815 26.792 21.1648 26.792C20.8231 26.792 20.5398 27.0753 20.5398 27.417V28.742H19.0731C17.5065 28.742 16.6981 27.567 15.9648 25.792L15.8231 25.442C15.7065 25.142 15.8481 24.8003 16.1481 24.6837C16.4565 24.567 16.6981 24.3253 16.8231 24.0087C16.9565 23.7003 16.9565 23.3587 16.8315 23.0503C16.5648 22.4087 15.8315 22.1003 15.1815 22.3587C15.0398 22.4253 14.8731 22.4253 14.7315 22.3587C14.5898 22.3003 14.4815 22.1837 14.4148 22.0337L14.2898 21.7003C13.0481 18.6837 13.5898 17.392 16.6065 16.142L18.6481 15.3003C18.9481 15.1753 19.2898 15.317 19.4065 15.617L21.2231 19.5753C20.8815 19.5753 20.5398 19.8503 20.5398 20.192V23.8087C20.5398 24.1503 20.8231 24.4337 21.1648 24.4337C21.1815 24.4337 21.2065 24.4337 21.2231 24.4253C21.5398 24.4003 21.7898 24.1337 21.7898 23.8087V20.192C21.7898 19.867 21.5398 19.6003 21.2231 19.5753V16.1087H26.1648C29.3648 16.1087 30.3315 17.0753 30.3315 20.2753V20.9837C30.3315 21.3087 30.0648 21.567 29.7481 21.567C29.0815 21.567 28.5398 22.1087 28.5398 22.7837Z" fill="white"/>
<defs>
<linearGradient id="paint0_linear_2009_3167" x1="22" y1="0" x2="22" y2="55.3793" gradientUnits="userSpaceOnUse">
<stop stop-color="#D9D9D9" stop-opacity="0.49"/>
<stop offset="1" stop-color="#D9D9D9" stop-opacity="0"/>
</linearGradient>
</defs>
</svg>
