<svg width="21" height="21" viewBox="0 0 21 21" fill="none" xmlns="http://www.w3.org/2000/svg">
<path d="M10.5 20.5625C9.625 20.5625 10.6601 19.1809 6.34638 17.0319C6.11004 16.9139 5.8807 16.7825 5.6595 16.6381C3.51313 15.2416 2.1875 12.6875 2.1875 9.93825C2.1875 5.41625 5.90888 1.75 10.5 1.75C15.0911 1.75 18.8125 5.41625 18.8125 9.93738C18.8125 12.9666 17.199 15.7622 14.6606 17.0284C10.3425 19.18 11.375 20.5625 10.5 20.5625ZM10.5 13.2212C12.3471 13.2212 13.825 11.7582 13.825 9.97937C13.825 8.2005 12.3471 6.7375 10.5 6.7375C8.65288 6.7375 7.175 8.2005 7.175 9.97937C7.175 11.7582 8.65288 13.2212 10.5 13.2212Z" fill="#1A82FE"/>
</svg>
