<svg width="18" height="16" viewBox="0 0 18 16" fill="none" xmlns="http://www.w3.org/2000/svg">
<path d="M2.52083 1.58301H15.3542C15.8404 1.58301 16.3067 1.77616 16.6505 2.11998C16.9943 2.4638 17.1875 2.93011 17.1875 3.41634V6.16634C16.7013 6.16634 16.235 6.3595 15.8911 6.70331C15.5473 7.04713 15.3542 7.51344 15.3542 7.99967C15.3542 8.4859 15.5473 8.95222 15.8911 9.29604C16.235 9.63985 16.7013 9.83301 17.1875 9.83301V12.583C17.1875 13.0692 16.9943 13.5356 16.6505 13.8794C16.3067 14.2232 15.8404 14.4163 15.3542 14.4163H2.52083C2.0346 14.4163 1.56829 14.2232 1.22447 13.8794C0.880654 13.5356 0.6875 13.0692 0.6875 12.583V9.83301C1.17373 9.83301 1.64005 9.63985 1.98386 9.29604C2.32768 8.95222 2.52083 8.4859 2.52083 7.99967C2.52083 7.51344 2.32768 7.04713 1.98386 6.70331C1.64005 6.3595 1.17373 6.16634 0.6875 6.16634V3.41634C0.6875 2.93011 0.880654 2.4638 1.22447 2.11998C1.56829 1.77616 2.0346 1.58301 2.52083 1.58301Z" stroke="white" stroke-width="1.36824" stroke-linecap="round" stroke-linejoin="round"/>
</svg>
