<svg width="23" height="22" viewBox="0 0 23 22" fill="none" xmlns="http://www.w3.org/2000/svg">
<g clip-path="url(#clip0_2031_1586)">
<path d="M14.6875 4.58301V6.41634" stroke="white" stroke-width="1.36824" stroke-linecap="round" stroke-linejoin="round"/>
<path d="M14.6875 10.083V11.9163" stroke="white" stroke-width="1.36824" stroke-linecap="round" stroke-linejoin="round"/>
<path d="M14.6875 15.583V17.4163" stroke="white" stroke-width="1.36824" stroke-linecap="round" stroke-linejoin="round"/>
<path d="M5.52083 4.58301H18.3542C18.8404 4.58301 19.3067 4.77616 19.6505 5.11998C19.9943 5.4638 20.1875 5.93011 20.1875 6.41634V9.16634C19.7013 9.16634 19.235 9.3595 18.8911 9.70331C18.5473 10.0471 18.3542 10.5134 18.3542 10.9997C18.3542 11.4859 18.5473 11.9522 18.8911 12.296C19.235 12.6399 19.7013 12.833 20.1875 12.833V15.583C20.1875 16.0692 19.9943 16.5356 19.6505 16.8794C19.3067 17.2232 18.8404 17.4163 18.3542 17.4163H5.52083C5.0346 17.4163 4.56829 17.2232 4.22447 16.8794C3.88065 16.5356 3.6875 16.0692 3.6875 15.583V12.833C4.17373 12.833 4.64005 12.6399 4.98386 12.296C5.32768 11.9522 5.52083 11.4859 5.52083 10.9997C5.52083 10.5134 5.32768 10.0471 4.98386 9.70331C4.64005 9.3595 4.17373 9.16634 3.6875 9.16634V6.41634C3.6875 5.93011 3.88065 5.4638 4.22447 5.11998C4.56829 4.77616 5.0346 4.58301 5.52083 4.58301Z" stroke="white" stroke-width="1.36824" stroke-linecap="round" stroke-linejoin="round"/>
</g>
<defs>
<clipPath id="clip0_2031_1586">
<rect width="22" height="22" fill="white" transform="translate(0.9375)"/>
</clipPath>
</defs>
</svg>
