<svg width="24" height="24" viewBox="0 0 24 24" fill="none" xmlns="http://www.w3.org/2000/svg">
<path fill-rule="evenodd" clip-rule="evenodd" d="M13.7237 12.6071L16.1609 14.0142C16.3988 14.1515 16.4758 14.4636 16.3418 14.6956C16.2038 14.9347 15.906 15.021 15.6612 14.8797L13.1827 13.4488C12.929 13.6458 12.6102 13.7632 12.264 13.7632C11.4361 13.7632 10.7649 13.092 10.7649 12.264C10.7649 11.6113 11.1821 11.056 11.7643 10.8502V6.27092C11.7643 5.99305 11.9961 5.7678 12.264 5.7678C12.54 5.7678 12.7637 6.00056 12.7637 6.27092V10.8502C13.346 11.056 13.7632 11.6113 13.7632 12.264C13.7632 12.3821 13.7495 12.4969 13.7237 12.6071ZM12.264 21.7585C17.5077 21.7585 21.7585 17.5077 21.7585 12.264C21.7585 7.02037 17.5077 2.76953 12.264 2.76953C7.02037 2.76953 2.76953 7.02037 2.76953 12.264C2.76953 17.5077 7.02037 21.7585 12.264 21.7585Z" fill="#A14BFC"/>
</svg>
